# xmcd
#
# Track frame offsets: 
#        150
#        24632
#        53741
#        79744
#        98190
#        127894
#        157562
#        183515
#        204481
#        224963
#        245187
#        268298
#        298740
#        320608
#
# Disc length: 4665 seconds
#
# Revision: 2
# Processed by: cddbd v1.5.1PL0 Copyright (c) Steve Scherf et al.
# Submitted via: ExactAudioCopy v0.95a5
#
DISCID=d412370e
DTITLE=Various Artist - Cassagrande Lounge vol.III CD1
DYEAR=2003
DGENRE=Ambient
TTITLE0=Chistophe Goze - Little Boy
TTITLE1=Smith and Mighty - Same
TTITLE2=Dust - I'll Take You There
TTITLE3=Tereza - Everybody's Got Learn Sometime
TTITLE4=DNA - Babe, I'm Gonna Leave You
TTITLE5=Jay-J feat. Latrice Barnett - Keep On Rising (Copyright Repris
TTITLE5=e)
TTITLE6=Cantoma - Balafia
TTITLE7=Mystic Diversions - Sweet
TTITLE8=Urban Chill - New Beginning
TTITLE9=OHM-G - Bright light
TTITLE10=Fragile State - Song Of departure
TTITLE11=Aiport Lounge - Love Is A Light
TTITLE12=Lenny Mac Dowel feat. Jazzamor - Summertime
TTITLE13=Flipside - Relief
EXTD=YEAR: 2002
EXTT0=
EXTT1=
EXTT2=
EXTT3=
EXTT4=
EXTT5=
EXTT6=
EXTT7=
EXTT8=
EXTT9=
EXTT10=
EXTT11=
EXTT12=
EXTT13=
PLAYORDER=
